Coordinates
version=1
nRows=20
nColumns=34
inDegrees=no

Units are S.I. units (second, meters, Newtons, ...)
If the header above contains a line with 'inDegrees', this indicates whether rotational values are in degrees (yes) or radians (no).

endheader
time	pelvis_tilt	pelvis_list	pelvis_rotation	pelvis_tx	pelvis_ty	pelvis_tz	hip_flexion_r	hip_adduction_r	hip_rotation_r	knee_angle_r	ankle_angle_r	subtalar_angle_r	mtp_angle_r	hip_flexion_l	hip_adduction_l	hip_rotation_l	knee_angle_l	ankle_angle_l	subtalar_angle_l	mtp_angle_l	lumbar_extension	lumbar_bending	lumbar_rotation	arm_flex_r	arm_add_r	arm_rot_r	elbow_flex_r	pro_sup_r	arm_flex_l	arm_add_l	arm_rot_l	elbow_flex_l	pro_sup_l
190.018	0.137433	-0.259647	1.85153	-0.0228589	0.758036	-0.0771242	1.00902	0.10714	0.285963	1.29574	0.556931	0.0638517	0	0.0979454	-0.75476	-0.700022	0.681069	0.325683	-0.0480286	0	0.041974	0.17828	-0.17975	1.09616	-0.851874	0.17749	0.584943	2.09	1.17214	0.182018	1.20245	1.04632	0.6455
190.038	0.143219	-0.256456	1.85181	-0.0229306	0.758085	-0.0772079	1.01004	0.103769	0.281225	1.29067	0.553309	0.0700489	0	0.113034	-0.765719	-0.699099	0.705469	0.335559	-0.0561119	0	0.0410256	0.181814	-0.176338	1.07147	-0.849611	0.161831	0.580072	2.09	1.18654	0.180399	1.19733	1.05761	0.640148
190.058	0.148663	-0.253618	1.8527	-0.0230054	0.758102	-0.077287	1.01135	0.0996156	0.276674	1.28576	0.549708	0.0760234	0	0.130179	-0.775902	-0.696199	0.730224	0.344344	-0.0633472	0	0.0404626	0.18477	-0.174285	1.04761	-0.846136	0.147212	0.574947	2.09	1.20224	0.17622	1.19432	1.07165	0.63198
190.078	0.15363	-0.25114	1.85428	-0.0230876	0.758087	-0.0773701	1.01288	0.0945914	0.27243	1.28107	0.54621	0.0816021	0	0.149	-0.785103	-0.690221	0.754917	0.352271	-0.0699527	0	0.0402319	0.187033	-0.174011	1.02504	-0.841074	0.133905	0.569343	2.09	1.21979	0.168671	1.19431	1.08922	0.620285
190.098	0.158061	-0.248908	1.85658	-0.0231864	0.758058	-0.0774635	1.01443	0.0886821	0.268526	1.27654	0.542854	0.086721	0	0.168913	-0.793166	-0.680375	0.77908	0.359615	-0.0760469	0	0.0401889	0.188608	-0.175571	1.00392	-0.834361	0.12186	0.563192	2.09	1.23924	0.157733	1.19739	1.11021	0.605152
190.118	0.162041	-0.246649	1.8595	-0.0233298	0.758065	-0.077564	1.01559	0.0820004	0.264871	1.27189	0.539582	0.0914239	0	0.189079	-0.800128	-0.667135	0.80225	0.366646	-0.0814508	0	0.0401213	0.189723	-0.178191	0.983564	-0.826752	0.110368	0.556832	2.09	1.25953	0.145146	1.20182	1.13272	0.588518
190.138	0.165806	-0.243869	1.8629	-0.023573	0.758199	-0.0776545	1.01569	0.0747685	0.261224	1.26661	0.536221	0.0958307	0	0.208448	-0.80626	-0.65208	0.82402	0.373589	-0.0857745	0	0.0397014	0.190862	-0.180127	0.962319	-0.820028	0.0979056	0.551136	2.09	1.27825	0.134524	1.2038	1.15309	0.574604
190.158	0.169458	-0.240504	1.86666	-0.0239246	0.758474	-0.0777305	1.01463	0.0670985	0.257501	1.2605	0.532694	0.100097	0	0.226571	-0.811728	-0.63676	0.844243	0.380631	-0.0885907	0	0.0389244	0.19217	-0.180735	0.93957	-0.814701	0.083863	0.54642	2.09	1.29463	0.126862	1.20223	1.17033	0.565027
190.178	0.17302	-0.236696	1.8707	-0.0243719	0.758865	-0.0777934	1.01259	0.0590006	0.253667	1.25355	0.528982	0.104387	0	0.243449	-0.816629	-0.622171	0.862975	0.387895	-0.089623	0	0.0379287	0.193613	-0.180052	0.915329	-0.810587	0.068213	0.542684	2.09	1.30885	0.121766	1.1975	1.18486	0.559496
190.198	0.176486	-0.232619	1.87504	-0.0248981	0.759334	-0.077847	1.0098	0.0504263	0.249689	1.24583	0.5251	0.108835	0	0.259342	-0.82101	-0.608676	0.880404	0.395432	-0.0887906	0	0.0368628	0.195097	-0.178412	0.889883	-0.807251	0.0512279	0.53979	2.09	1.32143	0.118368	1.19048	1.19756	0.556956
190.218	0.179844	-0.228402	1.87971	-0.0254899	0.759851	-0.077895	1.00643	0.0413072	0.245512	1.23744	0.521066	0.113529	0	0.274619	-0.824899	-0.596157	0.89678	0.403224	-0.0862044	0	0.0358254	0.196536	-0.176207	0.863583	-0.804266	0.0333176	0.537561	2.09	1.33288	0.115839	1.18199	1.20929	0.556297
190.238	0.183084	-0.224104	1.88478	-0.0261385	0.760394	-0.0779398	1.00259	0.0315868	0.241069	1.22845	0.516899	0.11852	0	0.289642	-0.828304	-0.584234	0.912364	0.411197	-0.0821178	0	0.0348518	0.197879	-0.173759	0.836755	-0.801314	0.0149402	0.535817	2.09	1.34357	0.113591	1.17261	1.22065	0.556665
190.258	0.186197	-0.219733	1.8903	-0.0268382	0.760953	-0.0779824	0.998321	0.0212395	0.236295	1.21894	0.512607	0.12382	0	0.304689	-0.831227	-0.572489	0.927386	0.419241	-0.0768582	0	0.0339257	0.19911	-0.171264	0.809669	-0.798208	-0.00344599	0.534388	2.09	1.35373	0.111304	1.16265	1.23194	0.557525
190.278	0.189178	-0.215261	1.89625	-0.0275841	0.761525	-0.078022	0.993611	0.010279	0.231139	1.20898	0.508189	0.129423	0	0.319915	-0.833674	-0.560607	0.942022	0.42724	-0.0707605	0	0.0330017	0.200236	-0.168795	0.782545	-0.794864	-0.021414	0.533107	2.09	1.36345	0.10886	1.15228	1.24327	0.558586
190.298	0.192024	-0.210654	1.90261	-0.0283707	0.76211	-0.078057	0.98845	-0.0012414	0.225573	1.19861	0.503642	0.135298	0	0.335363	-0.83566	-0.548429	0.956397	0.435082	-0.064118	0	0.0320284	0.201282	-0.166333	0.755571	-0.791261	-0.0385964	0.531803	2.09	1.37278	0.106263	1.14156	1.25462	0.559705
190.318	0.194741	-0.205881	1.90933	-0.029192	0.762708	-0.0780848	0.98283	-0.0132356	0.219588	1.1879	0.498965	0.141384	0	0.35101	-0.837218	-0.535927	0.970595	0.442674	-0.0571601	0	0.0309666	0.202284	-0.163817	0.728912	-0.787406	-0.0547175	0.530311	2.09	1.38175	0.103564	1.1306	1.26588	0.560815
190.338	0.197348	-0.200926	1.91636	-0.0300424	0.763316	-0.078102	0.976759	-0.0255937	0.213195	1.17691	0.49417	0.147578	0	0.366823	-0.838396	-0.52313	0.984676	0.449946	-0.0500543	0	0.0298028	0.20328	-0.161191	0.702724	-0.783302	-0.0696228	0.528491	2.09	1.39037	0.100807	1.11949	1.27695	0.561888
190.358	0.199878	-0.19579	1.92367	-0.0309173	0.763926	-0.0781049	0.970269	-0.0381937	0.206423	1.16571	0.489281	0.153719	0	0.382812	-0.839248	-0.510048	0.998689	0.456854	-0.0429289	0	0.0285553	0.204312	-0.158444	0.67715	-0.778922	-0.0832965	0.526252	2.09	1.39869	0.098005	1.10837	1.28773	0.562932
190.378	0.20238	-0.190487	1.93126	-0.0318146	0.764529	-0.0780892	0.963407	-0.0509189	0.199312	1.1544	0.484335	0.159629	0	0.399043	-0.839814	-0.496632	1.01267	0.463379	-0.035887	0	0.0272692	0.205421	-0.155625	0.652321	-0.774219	-0.0958314	0.523578	2.09	1.40675	0.0951316	1.09736	1.29818	0.563971
190.398	0.204905	-0.185037	1.93916	-0.032734	0.765116	-0.0780511	0.956223	-0.0636633	0.191917	1.14304	0.47937	0.165122	0	0.415616	-0.840118	-0.482792	1.02665	0.469532	-0.0290125	0	0.0260071	0.206639	-0.152831	0.628349	-0.769127	-0.107386	0.520521	2.09	1.41456	0.0921335	1.08657	1.30825	0.565036
